<?xml version="1.0" encoding="UTF-8" standalone="no"?>
<svg
   width="256px"
   height="256px"
   viewBox="0 0 256 256"
   version="1.1"
   preserveAspectRatio="xMidYMid"
   id="svg1"
   sodipodi:docname="reddit-icon.svg"
   inkscape:version="1.4.2 (f4327f4, 2025-05-13)"
   xmlns:inkscape="http://www.inkscape.org/namespaces/inkscape"
   xmlns:sodipodi="http://sodipodi.sourceforge.net/DTD/sodipodi-0.dtd"
   xmlns="http://www.w3.org/2000/svg"
   xmlns:svg="http://www.w3.org/2000/svg">
  <defs
     id="defs1" />
  <sodipodi:namedview
     id="namedview1"
     pagecolor="#505050"
     bordercolor="#eeeeee"
     borderopacity="1"
     inkscape:showpageshadow="0"
     inkscape:pageopacity="0"
     inkscape:pagecheckerboard="0"
     inkscape:deskcolor="#505050"
     inkscape:zoom="3.3398438"
     inkscape:cx="128"
     inkscape:cy="120.2152"
     inkscape:window-width="1920"
     inkscape:window-height="1057"
     inkscape:window-x="-8"
     inkscape:window-y="-8"
     inkscape:window-maximized="1"
     inkscape:current-layer="svg1" />
  <g
     id="g1"
     style="display:none">
    <circle
       fill="#ff4500"
       cx="128"
       cy="128"
       r="128"
       id="circle1"
       style="display:inline" />
    <path
       d="m 213.14987,129.22027 c 0,-10.37654 -8.39111,-18.61689 -18.61689,-18.61689 -5.03467,0 -9.61422,1.98258 -12.97067,5.18826 -12.81707,-9.15626 -30.36729,-15.10684 -49.90009,-15.869151 l 8.54471,-39.981511 27.77316,5.950578 c 0.3072,7.020088 6.10418,12.666311 13.27787,12.666311 7.32444,0 13.27502,-5.950578 13.27502,-13.277867 0,-7.324444 -5.95058,-13.275022 -13.27502,-13.275022 -5.18827,0 -9.76783,3.052089 -11.904,7.478044 l -30.976,-6.562133 c -0.91592,-0.1536 -1.83183,0 -2.44338,0.457955 -0.76231,0.457956 -1.22027,1.220267 -1.37102,2.136178 l -9.46347,44.558218 c -19.83716,0.61156 -37.691734,6.56214 -50.662401,15.872 -3.356445,-3.20568 -7.936,-5.18826 -12.970667,-5.18826 -10.376533,0 -18.616889,8.39111 -18.616889,18.61689 0,7.6288 4.576711,14.03733 10.988089,16.93866 -0.3072,1.82898 -0.457955,3.6608 -0.457955,5.64623 0,28.68622 33.419377,52.03626 74.621153,52.03626 41.20178,0 74.62116,-23.19644 74.62116,-52.03626 0,-1.83183 -0.1536,-3.81725 -0.45796,-5.64623 6.40854,-2.90133 10.98525,-9.46346 10.98525,-17.09226 z M 85.272178,142.49529 c 0,-7.32445 5.950578,-13.27502 13.277866,-13.27502 7.324446,0 13.275026,5.95057 13.275026,13.27502 0,7.32444 -5.95058,13.27787 -13.275026,13.27787 -7.327288,0.15075 -13.277866,-5.95343 -13.277866,-13.27787 z m 74.316802,35.2512 c -9.15627,9.15627 -26.55289,9.76782 -31.58756,9.76782 -5.18826,0 -22.58489,-0.76515 -31.590398,-9.76782 -1.371022,-1.37387 -1.371022,-3.51005 0,-4.88391 1.373867,-1.37102 3.510045,-1.37102 4.883908,0 5.79983,5.79982 18.00818,7.7824 26.70649,7.7824 8.69831,0 21.05742,-1.98258 26.70365,-7.7824 1.37386,-1.37102 3.51004,-1.37102 4.88391,0 1.22026,1.37386 1.22026,3.51004 0,4.88391 z m -2.44338,-21.82258 c -7.32444,0 -13.27502,-5.95058 -13.27502,-13.27502 0,-7.32445 5.95058,-13.27502 13.27502,-13.27502 7.32729,0 13.27787,5.95057 13.27787,13.27502 0,7.17084 -5.95058,13.27502 -13.27787,13.27502 z"
       fill="#ffffff"
       fill-rule="nonzero"
       id="path1"
       style="display:inline" />
  </g>
  <path
     style="fill:#0b0f1a;stroke-width:0.299415;fill-opacity:1"
     d="m 120.2152,255.64238 c -6.74968,-0.39814 -16.08554,-1.87779 -23.340195,-3.6992 -22.61631,-5.67822 -42.516782,-16.99504 -59.169966,-33.64822 -21.173002,-21.173 -33.5994215,-47.37008 -37.00779818,-78.01894 -0.50333573,-4.5261 -0.50333573,-20.02594 0,-24.55204 C 3.554316,90.032538 12.642547,67.757068 28.305227,48.05614 33.007239,42.141828 41.957672,33.161749 47.762687,28.53424 67.646766,12.683493 89.89831,3.569243 115.72398,0.69724082 c 4.53604,-0.50444171 20.02945,-0.50344217 24.55204,0.001584 16.11977,1.80005118 30.18539,5.79926938 43.79768,12.45280518 20.15374,9.850931 37.29792,24.774096 49.91649,43.44985 17.29493,25.596871 24.77608,57.16111 20.79002,87.71665 -4.82528,36.98867 -25.46879,69.98536 -56.59392,90.45999 -18.48793,12.16167 -38.7952,19.00752 -61.62158,20.77347 -3.54885,0.27455 -12.40086,0.32371 -16.34951,0.0908 z m 21.25848,-52.32636 c 13.87067,-1.94378 25.93012,-6.03109 35.95377,-12.1858 9.19339,-5.64493 16.63627,-13.2464 20.7228,-21.16437 3.22905,-6.25652 4.47716,-11.19867 4.5112,-17.86293 0.0118,-2.30549 -0.0711,-4.53729 -0.18427,-4.95955 -0.18333,-0.68431 -0.0654,-0.83588 1.08484,-1.39473 3.65554,-1.776 7.30159,-6.2048 8.76619,-10.64816 0.69175,-2.09865 0.8107,-2.96478 0.8107,-5.90282 0,-2.92422 -0.11974,-3.80436 -0.79432,-5.8386 -1.95525,-5.8961 -7.07435,-10.7043 -13.08377,-12.28915 -2.84336,-0.74987 -7.34719,-0.67346 -10.03041,0.17017 -2.6379,0.82937 -4.07901,1.54883 -6.05031,3.02053 -0.8575,0.64017 -1.62652,1.16395 -1.70895,1.16395 -0.0824,0 -1.26715,-0.74702 -2.63273,-1.66005 -5.37155,-3.59144 -15.09495,-7.92676 -22.69339,-10.11817 -6.20664,-1.79002 -14.63551,-3.25983 -21.03392,-3.66784 -1.77029,-0.112888 -3.21871,-0.247215 -3.21871,-0.298504 0,-0.211843 8.42426,-39.486435 8.47647,-39.518017 0.0384,-0.02325 24.68453,5.251294 27.33954,5.850965 0.0198,0.0045 0.20007,0.850214 0.40073,1.879454 0.66352,3.403398 2.73569,6.576223 5.48812,8.403186 2.63798,1.750989 4.96443,2.380962 8.29748,2.24686 2.42011,-0.09737 3.14279,-0.254392 4.84442,-1.052558 3.36036,-1.576218 5.96814,-4.410069 7.18334,-7.806063 0.88895,-2.484278 0.86418,-6.484681 -0.0551,-8.902536 -1.3325,-3.504539 -3.76156,-6.14056 -7.1282,-7.735536 -1.88615,-0.893578 -2.19678,-0.947505 -5.45775,-0.947505 -3.38227,0 -3.50649,0.02411 -5.68889,1.104108 -2.30029,1.138341 -4.29344,2.849232 -5.60277,4.809342 -0.41252,0.617544 -0.92685,1.122807 -1.14296,1.122807 -0.21612,0 -7.06762,-1.414737 -15.22557,-3.14386 -8.15794,-1.729123 -15.37162,-3.143859 -16.03039,-3.143859 -0.88973,0 -1.42828,0.211752 -2.09415,0.823391 -0.87551,0.804209 -1.00499,1.336096 -5.55753,22.83041 -2.56363,12.103859 -4.73494,22.302049 -4.82515,22.662647 -0.18077,0.722626 0.1128,0.669417 -7.14441,1.294978 -7.81592,0.67372 -16.61762,2.59349 -23.953216,5.22454 -4.771945,1.71154 -13.121245,5.77936 -16.81408,8.19189 l -2.741562,1.79108 -1.599958,-1.2118 c -10.361138,-7.84747 -25.296528,-3.04227 -29.37783,9.45181 -0.825269,2.5264 -0.880035,7.96263 -0.1061,10.5317 1.364788,4.5304 5.001704,9.19491 8.642883,11.08488 1.154434,0.59922 1.6763,1.03905 1.590934,1.34085 -0.381782,1.34972 -0.473097,5.93401 -0.172197,8.645 1.050558,9.46517 5.100448,17.75378 12.432881,25.4455 11.360645,11.91729 30.216689,20.3677 50.152045,22.47582 1.72912,0.18285 3.61544,0.38444 4.19181,0.44798 2.70376,0.29806 18.0098,-0.10618 21.25848,-0.56144 z"
     id="path2" />
  <path
     style="fill:#0b0f1a;fill-opacity:1;stroke-width:0.299415"
     d="m 119.91579,203.57636 c -0.57637,-0.0666 -2.32795,-0.26301 -3.8924,-0.43658 -14.35639,-1.5928 -28.662285,-6.55385 -39.198703,-13.59346 -4.496181,-3.004 -7.126288,-5.21045 -10.878486,-9.12617 -6.27129,-6.54459 -10.254053,-13.921 -11.806642,-21.86689 -0.515757,-2.63956 -0.710868,-9.91654 -0.306823,-11.44347 0.1951,-0.73731 0.07449,-0.87895 -1.509763,-1.77296 -2.624211,-1.48088 -6.003598,-5.05987 -7.323017,-7.75554 -2.240408,-4.57732 -2.544544,-9.41203 -0.893422,-14.20226 4.12147,-11.9572 18.524447,-16.22547 28.735871,-8.51577 l 1.590254,1.20066 2.881084,-1.84775 c 12.266026,-7.86665 26.950957,-12.49485 43.672417,-13.76407 2.27463,-0.17265 4.17188,-0.3501 4.2161,-0.39432 0.0442,-0.0442 2.178,-9.977419 4.74172,-22.07377 2.56372,-12.096352 4.79877,-22.420225 4.96677,-22.941942 0.38962,-1.209904 1.44396,-1.898849 2.88456,-1.884879 0.62334,0.006 8.00492,1.474224 16.40352,3.262621 8.3986,1.788396 15.31611,3.127757 15.37225,2.976357 0.40402,-1.089585 2.33788,-3.335965 3.88857,-4.517001 7.59982,-5.788164 18.48069,-1.667931 20.5918,7.797452 1.42613,6.394193 -2.56294,13.128544 -8.92051,15.059598 -3.07409,0.933724 -6.56641,0.721085 -9.31999,-0.567475 -3.78151,-1.769582 -6.64179,-5.426044 -7.43212,-9.500905 -0.19163,-0.98807 -0.37195,-1.829313 -0.4007,-1.869428 -0.0713,-0.09943 -27.82522,-6.045201 -27.88067,-5.972913 -0.0926,0.120643 -8.50448,39.683211 -8.50448,39.99784 0,0.196695 0.59471,0.331055 1.46536,0.331055 2.18559,0 7.18683,0.5358 11.4095,1.22235 12.73305,2.07023 24.73056,6.53157 34.1914,12.71429 l 2.90251,1.89681 1.47979,-1.17822 c 6.07615,-4.83791 14.87668,-5.3157 21.31097,-1.15702 10.02244,6.47781 11.544,20.13458 3.18189,28.55898 -1.17456,1.18332 -2.91038,2.5892 -3.85737,3.12418 -1.58412,0.89493 -1.70485,1.03678 -1.50977,1.77403 0.40917,1.54628 0.20852,8.80599 -0.31792,11.50273 -2.06275,10.5666 -8.42067,20.20149 -18.45753,27.97081 -11.17734,8.65215 -25.269,14.15549 -42.06783,16.42914 -3.41048,0.46159 -18.78652,0.8666 -21.40819,0.56389 z m 19.7354,-16.88943 c 7.52608,-1.32136 14.26238,-3.98078 18.21434,-7.19083 2.71633,-2.20638 3.38319,-3.93211 2.31654,-5.99479 -1.14997,-2.22379 -3.72697,-2.30753 -6.20039,-0.20148 -2.86142,2.43643 -6.62097,4.2068 -11.58725,5.45644 -10.71417,2.69596 -25.02797,1.98839 -33.91552,-1.67655 -2.75312,-1.13529 -4.21598,-1.99569 -6.35342,-3.73684 -1.97558,-1.60929 -3.434409,-1.97077 -4.898352,-1.21373 -1.356539,0.70149 -1.863395,1.60152 -1.863395,3.30883 0,1.42826 0.07495,1.56508 1.697989,3.0999 4.285738,4.05276 12.799048,7.3884 21.506688,8.42664 1.48211,0.17672 3.03158,0.37892 3.44328,0.44934 0.41169,0.0704 3.71274,0.0825 7.33567,0.0268 5.07596,-0.078 7.43979,-0.25091 10.30382,-0.75375 z m 19.8201,-30.84752 c 5.04574,-0.9569 9.33715,-4.89514 10.58387,-9.71284 1.26962,-4.9062 -0.12241,-9.75594 -3.79805,-13.2322 -1.95694,-1.8508 -3.45027,-2.64886 -6.13845,-3.28052 -6.56526,-1.54267 -13.47744,2.27007 -15.62059,8.61628 -1.18512,3.50933 -0.6915,8.33831 1.16511,11.39812 0.93973,1.54873 3.48616,3.96689 5.10533,4.84815 1.49808,0.81536 4.43963,1.60092 6.15904,1.64483 0.51273,0.0131 1.65741,-0.11373 2.54374,-0.28182 z m -56.94882,-0.56106 c 3.64735,-1.13518 6.42309,-3.57227 8.19684,-7.1968 0.92106,-1.88212 0.96256,-2.12186 0.96256,-5.55991 0,-3.42144 -0.0458,-3.6896 -0.95856,-5.61659 -1.33105,-2.80996 -3.54967,-5.0657 -6.33843,-6.44447 -2.20576,-1.09053 -2.32212,-1.11321 -5.71124,-1.11321 -3.967802,0 -5.65054,0.50528 -8.243092,2.4752 -5.046458,3.83447 -6.67292,10.79753 -3.894167,16.67134 2.723307,5.7566 9.731829,8.73099 15.986089,6.78444 z"
     id="path3" />
  <path
     style="fill:#0b0f1a;fill-opacity:1;stroke-width:0.299415"
     d="m 94.611295,155.02437 c -5.980038,-2.13458 -9.436783,-7.26359 -9.052006,-13.43109 0.29636,-4.75028 3.174322,-8.89005 7.63114,-10.9769 2.596359,-1.21571 6.537911,-1.50303 9.103721,-0.66361 5.6826,1.85909 9.23801,6.6605 9.23801,12.47548 0,5.30577 -2.83908,9.71672 -7.73101,12.01134 -1.72339,0.80838 -2.39336,0.95073 -4.844425,1.02934 -2.155147,0.0691 -3.20818,-0.0386 -4.34543,-0.44456 z"
     id="path4" />
  <path
     style="fill:#0b0f1a;fill-opacity:1;stroke-width:0.299415"
     d="m 154.68039,155.52177 c -3.8714,-0.7603 -7.51629,-3.61296 -9.33366,-7.30495 -0.99142,-2.01408 -1.0286,-2.21429 -1.0286,-5.53918 0,-3.26455 0.0517,-3.5588 0.9646,-5.48608 2.48403,-5.2444 8.46355,-8.469 13.8477,-7.46772 5.13806,0.95553 8.82597,4.14211 10.49839,9.07127 0.94702,2.79116 0.72971,6.3493 -0.55551,9.09575 -2.61428,5.58659 -8.61162,8.76629 -14.39292,7.63091 z"
     id="path5" />
  <path
     style="fill:#0b0f1a;fill-opacity:1;stroke-width:0.299415"
     d="m 120.51462,186.96886 c -8.71579,-1.06716 -15.84716,-3.39918 -20.91131,-6.83818 -4.031815,-2.73796 -4.979834,-5.04094 -2.92214,-7.09863 1.605339,-1.60534 2.885368,-1.41666 5.47647,0.80725 8.57848,7.3628 31.11595,9.1464 45.47253,3.59867 2.24285,-0.86669 4.17723,-2.04108 7.33111,-4.45084 1.65442,-1.26407 2.91163,-1.29349 4.24803,-0.0994 0.85859,0.76715 0.97782,1.05721 0.97782,2.37869 0,1.30962 -0.13604,1.64867 -1.04795,2.61158 -1.67056,1.76401 -6.18194,4.52958 -9.43158,5.78175 -3.30097,1.27196 -6.60216,2.14505 -10.92865,2.8904 -3.35023,0.57716 -14.8223,0.84017 -18.26433,0.41872 z"
     id="path6" />
  <path
     style="fill:#353e58;fill-opacity:1;stroke-width:0.299415"
     d="m 117.96959,203.27271 c -0.49403,-0.0742 -2.78456,-0.40894 -5.09006,-0.74382 -19.039604,-2.76554 -35.95259,-10.81168 -46.760641,-22.24578 -5.880521,-6.22115 -9.43535,-12.44596 -11.390784,-19.94627 -0.637615,-2.44565 -0.754794,-3.64139 -0.83579,-8.52876 l -0.0942,-5.68432 -1.748179,-1.1873 c -8.378376,-5.69028 -11.020627,-15.02506 -6.743209,-23.82301 1.521201,-3.12886 4.770108,-6.39734 7.839475,-7.8867 3.335404,-1.61845 5.535962,-2.08291 9.114086,-1.92364 3.844362,0.17113 6.27814,0.98208 9.67619,3.2242 l 2.571394,1.69667 3.013596,-1.91074 c 12.12999,-7.69087 26.085652,-12.12985 42.950922,-13.66169 2.77188,-0.25177 4.68502,-0.55736 4.81599,-0.769264 0.1195,-0.193362 2.34007,-10.279199 4.93458,-22.412967 2.59451,-12.133769 4.90977,-22.433597 5.14501,-22.888506 0.51635,-0.998515 1.45138,-1.27253 3.50962,-1.028516 0.85148,0.100947 7.47656,1.408623 14.72241,2.905947 13.95871,2.88451 16.31813,3.278335 16.31813,2.72376 0,-0.18463 0.89139,-1.280612 1.98087,-2.435516 4.22033,-4.473776 9.57832,-5.544886 14.95406,-2.98945 2.02072,0.960581 4.76389,3.605506 5.75566,5.549536 2.64521,5.185049 1.73919,10.943006 -2.36819,15.050393 -7.151,7.150999 -19.30911,3.480901 -21.64542,-6.533978 -0.24235,-1.038881 -0.54908,-1.984974 -0.68162,-2.102429 -0.13254,-0.117454 -4.68729,-1.167546 -10.12168,-2.333537 -15.27483,-3.277338 -17.54036,-3.728921 -17.73433,-3.53495 -0.28876,0.288755 -8.4645,38.607341 -8.4645,39.671939 0,0.489138 0.26269,0.613228 1.57193,0.742568 0.86456,0.0854 3.10689,0.30333 4.98295,0.48427 7.64733,0.73759 16.4904,2.70344 23.53635,5.23221 4.86167,1.74484 12.48682,5.46082 16.61754,8.09826 2.86494,1.82925 3.19964,1.97124 3.77249,1.60044 0.34575,-0.2238 1.48045,-0.98098 2.52155,-1.68262 2.29383,-1.54591 5.8965,-2.73568 8.96098,-2.95935 5.56298,-0.40604 11.67573,2.35193 15.16892,6.84395 6.84946,8.80797 4.72761,20.59493 -4.88221,27.12084 l -1.82448,1.23897 0.14967,3.0794 c 0.29929,6.15813 -0.72125,11.98706 -3.04331,17.3822 -7.91803,18.39693 -29.91063,32.28651 -57.05285,36.03212 -3.048,0.42062 -22.05652,0.84289 -24.10292,0.53544 z m 23.07668,-16.71068 c 7.68604,-1.61136 13.8871,-4.26027 17.30507,-7.39222 2.46705,-2.2606 2.91576,-3.47573 2.02614,-5.48686 -0.72231,-1.63291 -1.50557,-2.07638 -3.35367,-1.8988 -1.1322,0.10879 -1.85827,0.4554 -3.49371,1.66779 -3.8211,2.83271 -8.73328,4.78778 -14.93134,5.94276 -4.16582,0.77629 -16.92506,0.78389 -20.99918,0.0125 -5.97894,-1.13203 -10.82249,-2.93874 -13.9818,-5.21542 -3.16308,-2.27939 -3.53976,-2.47718 -4.717707,-2.47718 -1.358495,0 -2.786122,0.65476 -3.22804,1.48049 -0.169559,0.31683 -0.30829,1.32823 -0.30829,2.24755 0,1.60281 0.05846,1.72764 1.422222,3.03713 4.138155,3.97346 11.759235,7.09732 20.760465,8.50965 3.20146,0.50231 4.83749,0.56564 11.80094,0.45678 7.19746,-0.11251 8.4807,-0.2095 11.6989,-0.88419 z m -37.89773,-31.35562 c 3.23288,-1.1075 5.9631,-3.60051 7.8255,-7.14559 0.6463,-1.23024 0.70783,-1.71176 0.70783,-5.53918 v -4.19182 l -1.04795,-1.93779 c -1.3344,-2.46748 -3.52923,-4.66231 -5.99671,-5.99671 l -1.93779,-1.04795 h -4.048925 c -3.971997,0 -4.086874,0.0187 -6.046591,0.98371 -4.750767,2.3394 -7.420278,6.71206 -7.420278,12.15444 0,3.07882 0.732049,5.6426 2.233727,7.82298 3.334066,4.84091 9.915766,6.89013 15.731187,4.89791 z m 57.83045,0.35053 c 4.49034,-1.38775 7.81621,-4.7209 9.093,-9.11289 0.37787,-1.29983 0.47924,-2.51006 0.38841,-4.63713 -0.10649,-2.49381 -0.25394,-3.1503 -1.10388,-4.91494 -1.12486,-2.33542 -3.73347,-5.18067 -5.64287,-6.15478 -4.18541,-2.13523 -9.63021,-1.99811 -13.62525,0.34314 -1.87982,1.10165 -4.34297,3.85036 -5.21275,5.81711 -1.3913,3.14596 -1.42649,7.72142 -0.0869,11.30171 0.49655,1.32715 1.15562,2.25704 2.68032,3.78175 1.11203,1.11202 2.57598,2.30455 3.25323,2.65005 3.06126,1.56174 7.03793,1.92076 10.25673,0.92598 z"
     id="path7" />
</svg>
